<svg enable-background="new 0 0 50 50" version="1.1" viewBox="0 0 50 50" xml:space="preserve" xmlns="http://www.w3.org/2000/svg" fill="url(#grad)">
  <defs>
    <linearGradient id="grad" x1="0%" y1="0%" x2="100%" y2="0%">
        <stop offset="0%" style="stop-color:#753a88;stop-opacity:1" />
        <stop offset="100%" style="stop-color:#cc2b5e;stop-opacity:1" />
    </linearGradient>
  </defs>

    <path d="M30.4,40h-4h-4c0,0,0-2.4,0-4c-5.5,1.2-7-3-7-3c-1-2-2-3-2-3c-2-1.2,0-1,0-1c2,0,3,2,3,2  c1.8,3,4.9,2.5,6,2c0-1,0.4-2.5,1-3c-4.4-0.5-8-3-8-8s1-6,2-7c-0.2-0.5-1-2.3,0-5c0,0,2,0,4,3c1-1,4-1,5-1c1,0,4,0,5,1c2-3,4-3,4-3  c1.1,2.7,0.2,4.5,0,5c1,1,2,2,2,7s-3.6,7.5-8,8c0.6,0.5,1,2.2,1,3L30.4,40L30.4,40z"/>
    <path d="M25,1C11.7,1,1,11.7,1,25s10.7,24,24,24s24-10.7,24-24S38.3,1,25,1z M25,44C14.5,44,6,35.5,6,25S14.5,6,25,6  s19,8.5,19,19S35.5,44,25,44z"/>
</svg>
